<svg xmlns="http://www.w3.org/2000/svg" width="164" height="26" viewBox="0 0 164 26" fill="none">
<path d="M12.2785 9.42662L4.60444 25.7807H0L12.2785 0.00488281L24.5673 25.7757H19.9628L12.2785 9.42662Z" fill="#F1F5F9"/>
<path d="M14.3109 25.7658H10.2462V20.5208L12.2785 16.2599L14.3109 20.5208V25.7658Z" fill="#F1F5F9"/>
<path d="M27.2263 25.7757V9.02059H31.0838V13.6355L30.6298 12.2862C31.1226 11.1831 31.988 10.2747 33.0842 9.7101C34.1969 9.12416 35.5855 8.8316 37.2499 8.83243V12.566C37.0905 12.5264 36.9279 12.4999 36.7639 12.4867C36.6117 12.4768 36.4608 12.4719 36.3099 12.4719C34.7751 12.4719 33.554 12.906 32.6468 13.7742C31.7395 14.6424 31.2855 15.9339 31.2846 17.6488V25.7757H27.2263Z" fill="#F1F5F9"/>
<path d="M40.6803 25.7757V9.02059H44.5378V13.6355L44.0837 12.2837C44.5754 11.1825 45.4384 10.2752 46.5317 9.7101C47.6402 9.12416 49.0288 8.8316 50.6975 8.83243V12.566C50.5381 12.5264 50.3755 12.4999 50.2114 12.4867C50.0592 12.4768 49.9083 12.4719 49.7574 12.4719C48.2226 12.4719 47.0016 12.906 46.0943 13.7742C45.1871 14.6424 44.733 15.9339 44.7322 17.6488V25.7757H40.6803Z" fill="#F1F5F9"/>
<path d="M61.752 25.9948C59.981 25.9948 58.4035 25.6234 57.0196 24.8807C55.6637 24.1649 54.5325 23.1081 53.7454 21.8218C52.9447 20.5261 52.5448 19.0514 52.5456 17.3975C52.5456 15.7255 52.9456 14.2458 53.7454 12.9584C54.5342 11.6813 55.6657 10.635 57.0196 9.93045C58.4027 9.19761 59.9801 8.8316 61.752 8.83243C63.5426 8.83243 65.1367 9.19843 66.5342 9.93045C67.8892 10.6263 69.0216 11.6679 69.8085 12.9423C70.5963 14.2182 70.9907 15.7037 70.9916 17.3988C70.9916 19.0493 70.5972 20.5241 69.8085 21.8231C69.0269 23.1136 67.8944 24.1716 66.5342 24.8819C65.1401 25.6239 63.546 25.9948 61.752 25.9948ZM61.752 22.6376C62.6794 22.6534 63.5953 22.4373 64.411 22.01C65.1905 21.5904 65.8269 20.9602 66.2426 20.1964C66.6851 19.4017 66.9064 18.4708 66.9064 17.4037C66.9064 16.3168 66.6851 15.381 66.2426 14.5961C65.8241 13.8366 65.1882 13.2099 64.411 12.7913C63.5984 12.379 62.6945 12.1636 61.7769 12.1636C60.8593 12.1636 59.9555 12.379 59.1428 12.7913C58.3702 13.2156 57.7357 13.8408 57.3112 14.5961C56.8576 15.3793 56.6304 16.3152 56.6295 17.4037C56.6295 18.4708 56.8568 19.4017 57.3112 20.1964C57.7319 20.9583 58.3669 21.5893 59.1428 22.0162C59.9416 22.4402 60.8411 22.6544 61.752 22.6376Z" fill="#F1F5F9"/>
<path d="M78.2205 25.7757L71.8664 9.02059H75.6919L81.138 23.7988H79.323L85.0287 9.02059H88.4322L93.9754 23.7988H92.1937L97.8022 9.02059H101.4L95.0127 25.7757H91.1232L86.066 12.691H87.2657L82.1113 25.7757H78.2205Z" fill="#F1F5F9"/>
<path d="M109.313 25.9948C107.906 25.9999 106.504 25.8153 105.149 25.4464C103.819 25.08 102.765 24.6352 101.987 24.112L103.544 21.1311C104.412 21.6514 105.35 22.053 106.332 22.3244C107.381 22.6337 108.472 22.7926 109.569 22.7961C110.848 22.7961 111.772 22.6285 112.342 22.2935C112.912 21.9584 113.198 21.5086 113.2 20.9441C113.209 20.7345 113.159 20.5264 113.057 20.3416C112.954 20.1567 112.802 20.0019 112.617 19.8932C112.147 19.6231 111.631 19.4373 111.094 19.3448C110.466 19.2185 109.769 19.1034 109.002 18.9994C108.236 18.8954 107.469 18.7543 106.7 18.576C105.968 18.4114 105.264 18.1471 104.609 17.7912C103.991 17.4535 103.468 16.974 103.086 16.3948C102.697 15.8097 102.503 15.0356 102.503 14.0725C102.481 13.0704 102.812 12.0911 103.443 11.2959C104.069 10.5119 104.95 9.90528 106.085 9.47614C107.22 9.047 108.565 8.83284 110.12 8.83366C111.309 8.8341 112.494 8.95861 113.654 9.20504C114.842 9.45262 115.825 9.8079 116.604 10.2709L115.048 13.253C114.283 12.7936 113.446 12.459 112.568 12.2627C111.754 12.087 110.923 11.9973 110.088 11.9953C108.857 11.9953 107.944 12.1731 107.349 12.5288C106.754 12.8845 106.455 13.3343 106.453 13.8781C106.453 14.3807 106.648 14.7575 107.037 15.0084C107.505 15.2914 108.021 15.4929 108.561 15.6038C109.25 15.7619 109.948 15.8825 110.651 15.9653C111.421 16.0598 112.185 16.2012 112.937 16.3886C113.662 16.5652 114.364 16.8232 115.028 17.1574C115.654 17.4735 116.183 17.943 116.563 18.5191C116.952 19.1042 117.146 19.8676 117.146 20.8092C117.164 21.7969 116.826 22.7599 116.191 23.5326C115.552 24.3076 114.649 24.9092 113.483 25.3375C112.316 25.7658 110.927 25.9849 109.313 25.9948Z" fill="#F1F5F9"/>
<path d="M118.355 12.2837V9.14562H129.896V12.2837H118.355ZM127.173 25.9948C125.272 25.9948 123.802 25.5191 122.763 24.5675C121.725 23.616 121.206 22.2093 121.208 20.3475V5.318H125.26V20.2534C125.26 21.0481 125.473 21.665 125.9 22.1041C126.326 22.5431 126.915 22.7626 127.666 22.7626C128.572 22.7626 129.329 22.5328 129.935 22.0731L131.069 24.8658C130.553 25.2621 129.957 25.5504 129.32 25.7126C128.621 25.9018 127.899 25.9968 127.173 25.9948Z" fill="#F1F5F9"/>
<path d="M141.956 25.9948C140.033 25.9948 138.352 25.6234 136.914 24.8807C135.527 24.185 134.37 23.1249 133.576 21.8218C132.787 20.5261 132.392 19.0514 132.393 17.3975C132.393 15.7255 132.777 14.2458 133.544 12.9584C134.296 11.6863 135.395 10.6388 136.721 9.93045C138.072 9.19761 139.612 8.8316 141.341 8.83243C143.027 8.83243 144.529 9.18771 145.847 9.89827C147.157 10.6002 148.236 11.6442 148.963 12.9113C149.719 14.2087 150.097 15.7354 150.097 17.4916C150.097 17.66 150.097 17.8481 150.081 18.0561C150.064 18.2641 150.054 18.4646 150.032 18.6528H135.602V16.0532H147.888L146.3 16.8689C146.34 15.9831 146.128 15.1037 145.685 14.3275C145.266 13.6095 144.655 13.0136 143.917 12.6019C143.131 12.1733 142.241 11.9566 141.34 11.9742C140.428 11.9542 139.527 12.1709 138.731 12.6019C137.992 13.0142 137.385 13.6172 136.98 14.3436C136.559 15.0864 136.349 15.9595 136.348 16.963V17.5906C136.329 18.5261 136.576 19.4487 137.06 20.2583C137.536 21.0319 138.234 21.6537 139.071 22.0471C140.001 22.4792 141.024 22.6933 142.056 22.6723C142.952 22.6852 143.842 22.5366 144.682 22.234C145.473 21.932 146.182 21.4595 146.756 20.8525L148.931 23.2689C148.134 24.161 147.128 24.855 145.997 25.2929C144.819 25.7609 143.472 25.9948 141.956 25.9948Z" fill="#F1F5F9"/>
<path d="M153.983 25.7757V9.02059H157.84V13.6355L157.388 12.2862C157.878 11.1841 158.741 10.2759 159.834 9.7101C160.947 9.12416 162.336 8.8316 164 8.83243V12.566C163.841 12.5263 163.678 12.4998 163.514 12.4867C163.363 12.4768 163.211 12.4719 163.06 12.4719C161.525 12.4719 160.304 12.906 159.397 13.7742C158.49 14.6424 158.036 15.9339 158.035 17.6488V25.7757H153.983Z" fill="#F1F5F9"/>
</svg>