<svg width="172" height="28" viewBox="0 0 172 28" fill="none" xmlns="http://www.w3.org/2000/svg">
<path d="M13.6268 10.1875L5.71421 27.6096H0.966656L13.6268 0.156933L26.2975 27.6096H21.5499L13.6268 10.1875Z" fill="black"/>
<path d="M15.7223 27.6004H11.5313V22.0128L13.6268 17.4736L15.7223 22.0128V27.6004Z" fill="black"/>
<path d="M29.0392 27.6096V9.75885H33.0166V14.6726L32.5484 13.2351C33.0574 12.0618 33.9497 11.0961 35.0791 10.496C36.2264 9.87271 37.6582 9.5606 39.3743 9.55972V13.5371C39.2098 13.496 39.0422 13.4682 38.8732 13.454C38.7163 13.4435 38.5607 13.4369 38.405 13.4369C36.8225 13.4369 35.5635 13.8993 34.6281 14.8242C33.6927 15.7491 33.2245 17.1255 33.2236 18.9533V27.6096H29.0392Z" fill="black"/>
<path d="M42.9113 27.6096V9.75885H46.8887V14.6726L46.4205 13.2364C46.9275 12.0637 47.8174 11.0976 48.9446 10.496C50.0875 9.87271 51.5193 9.5606 53.2398 9.55972V13.5371C53.0753 13.496 52.9077 13.4682 52.7387 13.454C52.5818 13.4435 52.4261 13.4369 52.2705 13.4369C50.688 13.4369 49.429 13.8993 48.4936 14.8242C47.5582 15.7491 47.09 17.1255 47.0891 18.9533V27.6096H42.9113Z" fill="black"/>
<path d="M64.6379 27.8444C62.8119 27.8444 61.1854 27.4488 59.7585 26.6575C58.3606 25.8945 57.1944 24.7688 56.3824 23.3988C55.5569 22.0168 55.1446 20.4457 55.1454 18.6856C55.1454 16.9026 55.5578 15.3258 56.3824 13.9552C57.1961 12.595 58.3627 11.4804 59.7585 10.7295C61.1845 9.95051 62.811 9.5606 64.6379 9.55972C66.4842 9.55972 68.1278 9.94963 69.5688 10.7295C70.9654 11.4715 72.1327 12.581 72.9448 13.938C73.7572 15.2981 74.1638 16.8806 74.1647 18.6856C74.1647 20.4439 73.758 22.015 72.9448 23.3988C72.1387 24.7734 70.971 25.9005 69.5688 26.6575C68.1313 27.4488 66.4877 27.8444 64.6379 27.8444ZM64.6379 24.2679C65.5936 24.2868 66.5379 24.0588 67.3796 23.6059C68.1842 23.1571 68.8405 22.4834 69.2681 21.6673C69.7244 20.8206 69.9525 19.8289 69.9525 18.6922C69.9525 17.5325 69.7244 16.5351 69.2681 15.6999C68.8365 14.8911 68.1808 14.224 67.3796 13.7784C66.5417 13.3392 65.6097 13.1098 64.6636 13.1098C63.7175 13.1098 62.7856 13.3392 61.9476 13.7784C61.1519 14.2282 60.4978 14.8914 60.0592 15.6933C59.5914 16.5294 59.3571 17.5268 59.3563 18.6856C59.3563 19.8215 59.5906 20.8132 60.0592 21.6607C60.4919 22.4748 61.1467 23.1493 61.9476 23.6059C62.7715 24.0566 63.699 24.2839 64.6379 24.2653V24.2679Z" fill="black"/>
<path d="M81.6183 27.6096L75.0667 9.75885H79.0111L84.6264 25.5023H82.7551L88.6381 9.75885H92.1473L97.8628 25.5023H96.0258L101.809 9.75885H105.518L98.9324 27.6096H94.922L89.7076 13.6716H90.9446L85.63 27.6096H81.6183Z" fill="black"/>
<path d="M113.677 27.8444C112.226 27.85 110.781 27.6529 109.384 27.2589C108.012 26.8703 106.925 26.3968 106.124 25.8385L107.729 22.663C108.623 23.2174 109.591 23.6448 110.603 23.9329C111.687 24.263 112.813 24.4318 113.945 24.4341C115.264 24.4341 116.217 24.256 116.804 23.9C117.392 23.5439 117.686 23.0647 117.689 22.4625C117.699 22.2391 117.648 22.0173 117.542 21.8203C117.436 21.6233 117.279 21.4584 117.088 21.3429C116.604 21.0552 116.072 20.8569 115.517 20.7573C114.87 20.6237 114.151 20.5011 113.361 20.3894C112.571 20.2778 111.779 20.1274 110.987 19.9384C110.233 19.7634 109.507 19.4824 108.831 19.1036C108.193 18.7439 107.654 18.2331 107.26 17.616C106.859 16.9918 106.659 16.1672 106.659 15.142C106.636 14.0745 106.978 13.0311 107.628 12.1841C108.274 11.348 109.183 10.7018 110.353 10.2455C111.523 9.78918 112.91 9.5606 114.514 9.55972C115.739 9.56084 116.96 9.69348 118.157 9.95535C119.382 10.2191 120.396 10.598 121.198 11.0921L119.595 14.2677C118.806 13.7782 117.942 13.4218 117.038 13.2127C116.198 13.0249 115.341 12.9294 114.481 12.9278C113.211 12.9278 112.269 13.1173 111.656 13.4962C111.042 13.8752 110.734 14.3543 110.733 14.9337C110.733 15.4691 110.933 15.87 111.334 16.1364C111.817 16.4384 112.349 16.6535 112.906 16.772C113.617 16.9398 114.336 17.0683 115.061 17.1571C115.855 17.2579 116.642 17.4085 117.417 17.6081C118.166 17.7962 118.889 18.071 119.574 18.4271C120.219 18.7637 120.765 19.264 121.156 19.8777C121.557 20.5011 121.758 21.3147 121.758 22.3188C121.778 23.3732 121.429 24.4017 120.772 25.2266C120.114 26.0513 119.183 26.6918 117.981 27.1481C116.778 27.6044 115.343 27.8365 113.677 27.8444Z" fill="black"/>
<path d="M123 13.2364V9.89073H134.9V13.2325L123 13.2364ZM132.093 27.8444C130.132 27.8444 128.616 27.3375 127.546 26.3238C126.475 25.3102 125.94 23.8112 125.942 21.8269V5.81575H130.12V21.7266C130.12 22.575 130.34 23.2344 130.779 23.7048C131.219 24.1751 131.826 24.409 132.6 24.4064C133.535 24.4064 134.315 24.1611 134.94 23.6705L136.11 26.6456C135.577 27.0677 134.963 27.3752 134.306 27.549C133.585 27.7488 132.84 27.8482 132.093 27.8444Z" fill="black"/>
<path d="M147.335 27.8444C145.352 27.8444 143.619 27.4488 142.136 26.6575C140.706 25.9158 139.513 24.7866 138.694 23.3988C137.88 22.0168 137.474 20.4457 137.475 18.6856C137.475 16.9026 137.87 15.3258 138.661 13.9552C139.437 12.6003 140.571 11.4845 141.937 10.7295C143.33 9.95051 144.918 9.5606 146.701 9.55972C148.439 9.55972 149.987 9.93864 151.347 10.6965C152.697 11.4441 153.81 12.5558 154.559 13.905C155.339 15.2871 155.729 16.9136 155.729 18.7845C155.729 18.9625 155.729 19.163 155.712 19.3858C155.695 19.6087 155.684 19.8197 155.662 20.0215H140.783V17.2521H153.451L151.813 18.1211C151.855 17.1775 151.636 16.2406 151.179 15.4137C150.748 14.6483 150.118 14.0132 149.357 13.5754C148.547 13.1189 147.629 12.888 146.699 12.9067C145.759 12.8854 144.83 13.1163 144.009 13.5754C143.247 14.0143 142.622 14.6562 142.204 15.4295C141.77 16.2208 141.553 17.151 141.552 18.22V18.8887C141.533 19.8848 141.787 20.8672 142.287 21.7293C142.776 22.5536 143.497 23.2162 144.36 23.6349C145.318 24.0957 146.372 24.3247 147.435 24.3035C148.359 24.3175 149.277 24.1587 150.143 23.8353C150.958 23.5145 151.69 23.0116 152.282 22.3649L154.524 24.9391C153.702 25.8887 152.664 26.6275 151.498 27.094C150.286 27.5951 148.898 27.8453 147.335 27.8444Z" fill="black"/>
<path d="M159.735 27.6096V9.75885H163.713V14.6726L163.246 13.2351C163.753 12.0629 164.642 11.0973 165.769 10.496C166.916 9.87271 168.348 9.5606 170.064 9.55972V13.5371C169.899 13.4958 169.732 13.4681 169.563 13.454C169.407 13.4435 169.25 13.4369 169.095 13.4369C167.512 13.4369 166.253 13.8993 165.318 14.8242C164.382 15.7491 163.914 17.1255 163.913 18.9533V27.6096H159.735Z" fill="black"/>
</svg>
