<svg id="Layer_1" data-name="Layer 1" xmlns="http://www.w3.org/2000/svg" viewBox="0 0 1296.82 212.32"><defs><style>.cls-1{fill:#05092c;}</style></defs><path class="cls-1" d="M103.33,77.25l-60,132.11h-36L103.33,1.19l96.08,208.17h-36Z"/><polygon class="cls-1" points="119.22 209.29 87.44 209.29 87.44 166.92 103.33 132.5 119.22 166.92 119.22 209.29"/><path class="cls-1" d="M220.2,209.36V74h30.16v37.26l-3.55-10.9A42.81,42.81,0,0,1,266,79.59q13.05-7.09,32.57-7.1v30.16a23.85,23.85,0,0,0-3.8-.63c-1.19-.08-2.37-.13-3.55-.13q-18,0-28.64,10.52t-10.65,31.31v65.64Z"/><path class="cls-1" d="M325.39,209.36V74h30.16v37.26L352,100.37a42.81,42.81,0,0,1,19.14-20.78q13-7.09,32.57-7.1v30.16a23.85,23.85,0,0,0-3.8-.63c-1.19-.08-2.37-.13-3.55-.13q-18,0-28.64,10.52t-10.65,31.31v65.64Z"/><path class="cls-1" d="M490.14,211.14q-20.77,0-37-9a67.16,67.16,0,0,1-25.6-24.71q-9.39-15.72-9.38-35.74,0-20.28,9.38-35.87a66.6,66.6,0,0,1,25.6-24.46q16.22-8.86,37-8.87,21,0,37.39,8.87a65.83,65.83,0,0,1,25.6,24.33q9.24,15.47,9.25,36,0,20-9.25,35.74a66.06,66.06,0,0,1-25.6,24.71Q511.18,211.14,490.14,211.14Zm0-27.12A42.12,42.12,0,0,0,510.93,179a35.92,35.92,0,0,0,14.32-14.7q5.19-9.63,5.19-22.56,0-13.19-5.19-22.69a36.14,36.14,0,0,0-14.32-14.57,44.36,44.36,0,0,0-41.19,0A37.17,37.17,0,0,0,455.42,119q-5.32,9.51-5.33,22.69,0,12.92,5.33,22.56A36.93,36.93,0,0,0,469.74,179,40.81,40.81,0,0,0,490.14,184Z"/><path class="cls-1" d="M618.9,209.36,569.22,74h29.91l42.58,119.38H627.52L672.13,74h26.61l43.34,119.38H728.15L772,74h28.13L750.19,209.36H719.78L680.24,103.67h9.38l-40.3,105.69Z"/><path class="cls-1" d="M862,211.14a118.25,118.25,0,0,1-32.56-4.44q-15.6-4.42-24.72-10.77l12.17-24.08a86.18,86.18,0,0,0,21.8,9.63,87.54,87.54,0,0,0,25.34,3.8q15,0,21.68-4.05t6.71-10.9a9.45,9.45,0,0,0-4.56-8.49,35.66,35.66,0,0,0-11.91-4.44q-7.36-1.52-16.35-2.79t-18-3.42a62.15,62.15,0,0,1-16.35-6.33,33.88,33.88,0,0,1-11.91-11.28q-4.56-7.1-4.56-18.76a35.6,35.6,0,0,1,7.35-22.43q7.35-9.51,20.66-14.7t31.55-5.2a129.83,129.83,0,0,1,27.63,3q13.93,3,23.06,8.62l-12.16,24.08a64.2,64.2,0,0,0-19.39-8,89.54,89.54,0,0,0-19.39-2.16q-14.44,0-21.42,4.31t-7,10.9q0,6.09,4.56,9.12a37,37,0,0,0,11.92,4.82,151.11,151.11,0,0,0,16.34,2.92,144.69,144.69,0,0,1,17.87,3.42,75.08,75.08,0,0,1,16.35,6.21,31.52,31.52,0,0,1,12,11q4.56,7.09,4.56,18.51a34.33,34.33,0,0,1-7.47,22.05q-7.49,9.38-21.17,14.57T862,211.14Z"/><path class="cls-1" d="M932.69,100.37V75h90.24v25.34Zm68.95,110.77q-22.3,0-34.48-11.53T955,165.51V44.1h31.68V164.75q0,9.65,5,15t13.81,5.32q10.63,0,17.74-5.58l8.87,22.56a37.45,37.45,0,0,1-13.68,6.85A61.63,61.63,0,0,1,1001.64,211.14Z"/><path class="cls-1" d="M1117.22,211.14q-22.56,0-39.42-9a65.09,65.09,0,0,1-26.1-24.71q-9.26-15.72-9.25-35.74,0-20.28,9-35.87a64.65,64.65,0,0,1,24.84-24.46q15.84-8.86,36.12-8.87,19.77,0,35.23,8.62A62.49,62.49,0,0,1,1172,105.44q8.87,15.72,8.87,37c0,1.35,0,2.87-.13,4.56s-.21,3.29-.38,4.82H1067.54v-21h96.06l-12.42,6.59a38.89,38.89,0,0,0-4.81-20.53,37.07,37.07,0,0,0-13.82-13.94,39.42,39.42,0,0,0-20.15-5.07,39.94,39.94,0,0,0-20.4,5.07A36,36,0,0,0,1078.31,117q-4.93,9-4.94,21.16v5.07a41.39,41.39,0,0,0,5.57,21.54,37.16,37.16,0,0,0,15.72,14.45,51.46,51.46,0,0,0,23.32,5.07,56.21,56.21,0,0,0,20.53-3.55,43.63,43.63,0,0,0,16.22-11.15l17,19.52a59.64,59.64,0,0,1-22.94,16.34Q1135,211.15,1117.22,211.14Z"/><path class="cls-1" d="M1211.25,209.36V74h30.16v37.26l-3.54-10.9A42.79,42.79,0,0,1,1257,79.59q13.05-7.09,32.57-7.1v30.16a23.67,23.67,0,0,0-3.8-.63c-1.18-.08-2.37-.13-3.55-.13q-18,0-28.64,10.52t-10.65,31.31v65.64Z"/></svg>